<?xml version="1.0" encoding="UTF-8" standalone="no"?>
<svg
   xmlns:dc="http://purl.org/dc/elements/1.1/"
   xmlns:cc="http://creativecommons.org/ns#"
   xmlns:rdf="http://www.w3.org/1999/02/22-rdf-syntax-ns#"
   xmlns:svg="http://www.w3.org/2000/svg"
   xmlns="http://www.w3.org/2000/svg"
   xmlns:sodipodi="http://sodipodi.sourceforge.net/DTD/sodipodi-0.dtd"
   xmlns:inkscape="http://www.inkscape.org/namespaces/inkscape"
   height="512"
   width="512"
   version="1.1"
   viewBox="0 0 135.46666 135.46667"
   id="svg2"
   inkscape:version="0.91 r13725"
   sodipodi:docname="ciborium-c.svg">
  <metadata
     id="metadata54">
    <rdf:RDF>
      <cc:Work
         rdf:about="">
        <dc:format>image/svg+xml</dc:format>
        <dc:type
           rdf:resource="http://purl.org/dc/dcmitype/StillImage" />
        <dc:title></dc:title>
      </cc:Work>
    </rdf:RDF>
  </metadata>
  <sodipodi:namedview
     pagecolor="#ffffff"
     bordercolor="#666666"
     borderopacity="1"
     objecttolerance="10"
     gridtolerance="10"
     guidetolerance="10"
     inkscape:pageopacity="0"
     inkscape:pageshadow="2"
     inkscape:window-width="1454"
     inkscape:window-height="900"
     id="namedview52"
     showgrid="false"
     inkscape:zoom="0.921875"
     inkscape:cx="172.9413"
     inkscape:cy="264.52064"
     inkscape:window-x="67"
     inkscape:window-y="34"
     inkscape:window-maximized="0"
     inkscape:current-layer="svg2" />
  <defs
     id="defs4">
    <filter
       id="b"
       style="color-interpolation-filters:sRGB">
      <feFlood
         result="flood"
         flood-opacity=".09804"
         flood-color="rgb(0,0,0)"
         id="feFlood7" />
      <feComposite
         operator="in"
         result="composite1"
         in2="SourceGraphic"
         in="flood"
         id="feComposite9" />
      <feGaussianBlur
         stdDeviation="2"
         result="blur"
         in="composite1"
         id="feGaussianBlur11" />
      <feOffset
         result="offset"
         dx="0"
         dy="2"
         id="feOffset13" />
      <feComposite
         operator="over"
         result="composite2"
         in2="offset"
         in="SourceGraphic"
         id="feComposite15" />
    </filter>
    <linearGradient
       id="a"
       y2="222.6"
       gradientUnits="userSpaceOnUse"
       x2="383.2"
       gradientTransform="matrix(0,-0.913,-0.9134,0,303,418.75817)"
       y1="292.6"
       x1="383.5">
      <stop
         style="stop-color:#222;stop-opacity:0"
         offset="0"
         id="stop18" />
      <stop
         style="stop-opacity:.9810"
         offset=".1194"
         id="stop20" />
      <stop
         style="stop-color:#222;stop-opacity:0"
         offset="1"
         id="stop22" />
    </linearGradient>
  </defs>
  <rect
     id="rect26"
     x="0"
     y="0"
     width="135.5"
     height="135.5"
     style="fill:#666666" />
  <rect
     id="rect28"
     x="67.730003"
     y="0"
     width="67.730003"
     height="135.5"
     style="opacity:0.15;fill:#ffffff" />
  <path
     inkscape:connector-curvature="0"
     id="path30"
     d="m 57.56942,28.5794 c -9.691174,0 -14.532194,-0.0027 -14.532194,11.12034 l 0,0.228433 c -9e-6,0.01242 -5.3e-4,0.02374 -5.3e-4,0.03615 l 0,21.49202 -7.306286,7.306739 0,0.26404 -5.3e-4,5.3e-4 0,29.06079 c 0,11.129474 4.84376,11.120344 14.532194,11.120344 l 34.873612,0 c 9.691174,0 14.733142,-5.3e-4 14.532194,-11.120344 l 0,-58.12158 c 0.0064,-0.358444 0.0073,-0.704563 0.0027,-1.039907 -9.1e-5,-0.0073 -4.2e-4,-0.01388 -5.3e-4,-0.02118 -0.05398,-10.3169 -5.084898,-10.32603 -14.532194,-10.32603 z"
     style="opacity:0.4;fill:url(#a)" />
  <path
     inkscape:connector-curvature="0"
     id="path32"
     d="M 103.24692,0.28700595 -2.1936443e-7,103.53392 l 0,32.22828 135.47520021936443,0 0,-135.47519405 z"
     style="opacity:0.12670001;fill:#b3b3b3" />
  <g
     id="g34"
     transform="matrix(0,-0.913,-0.9134,0,427.9,423.8)"
     style="filter:url(#b);fill:#f9f9f9">
    <path
       inkscape:connector-curvature="0"
       id="path36"
       d="m 434,405.5 c 0,10.61 0.003,15.91 -12.18,15.91 l -23.83,0 -8.003,8 -31.83,0 c -12.19,0 -12.18,-5.303 -12.18,-15.91 l 0,-38.18 c 0,-10.61 0.001,-16.13 12.18,-15.91 l 63.66,0 c 12.18,-0.2226 12.18,5.303 12.18,15.91 z"
       style="fill:#f9f9f9" />
    <path
       inkscape:connector-curvature="0"
       id="path38"
       d="m 434.3,405.5 c 0,10.61 0.003,15.91 -12.18,15.91 l -0.2898,0 c 12.19,0 12.18,-5.303 12.18,-15.91 l 0,-30.18 c 0,-10.26 3e-5,-15.77 -11.04,-15.91 11.33,0.0514 11.33,5.56 11.33,15.91 z m -36.01,15.91 -8.003,8 -0.2898,0 8.003,-8 z"
       style="fill:#f9f9f9" />
    <g
       id="g4248"
       style="fill:#f9f9f9;stroke:#000000;stroke-opacity:0.33529413">
      <path
         inkscape:connector-curvature="0"
         id="path42"
         d="m 425.77826,410.84437 -12,0"
         style="color:#000000;fill:#f9f9f9;fill-opacity:1;stroke:#000000;stroke-width:6.00099993;stroke-opacity:0.33529413" />
      <path
         inkscape:connector-curvature="0"
         id="path44"
         d="m 427.77826,400.84437 -14,0"
         style="color:#000000;fill:#f9f9f9;fill-opacity:1;stroke:#000000;stroke-width:6.00099993;stroke-opacity:0.33529413" />
      <path
         inkscape:connector-curvature="0"
         id="path46"
         d="m 425.77826,390.84437 -12,0"
         style="color:#000000;fill:#f9f9f9;fill-opacity:1;stroke:#000000;stroke-width:6.00099993;stroke-opacity:0.33529413" />
      <path
         inkscape:connector-curvature="0"
         id="path48"
         d="m 427.77826,380.84437 -14,0"
         style="color:#000000;fill:#f9f9f9;fill-opacity:1;stroke:#000000;stroke-width:6.00099993;stroke-opacity:0.33529413" />
      <path
         inkscape:connector-curvature="0"
         id="path50"
         d="m 425.77826,370.84437 -12,0"
         style="color:#000000;fill:#f9f9f9;fill-opacity:1;stroke:#000000;stroke-width:6.00099993;stroke-opacity:0.33529413" />
    </g>
  </g>
</svg>
