<?xml version="1.0" encoding="UTF-8" standalone="no"?>
<!-- Generator: Adobe Illustrator 19.0.0, SVG Export Plug-In . SVG Version: 6.00 Build 0)  -->

<svg
   xmlns:dc="http://purl.org/dc/elements/1.1/"
   xmlns:cc="http://creativecommons.org/ns#"
   xmlns:rdf="http://www.w3.org/1999/02/22-rdf-syntax-ns#"
   xmlns:svg="http://www.w3.org/2000/svg"
   xmlns="http://www.w3.org/2000/svg"
   xmlns:sodipodi="http://sodipodi.sourceforge.net/DTD/sodipodi-0.dtd"
   xmlns:inkscape="http://www.inkscape.org/namespaces/inkscape"
   version="1.1"
   id="Capa_1"
   x="0px"
   y="0px"
   viewBox="0 0 512.001 512.001"
   style="enable-background:new 0 0 512.001 512.001;"
   xml:space="preserve"
   sodipodi:docname="memory-card.svg"
   inkscape:version="0.92.2 2405546, 2018-03-11"><metadata
   id="metadata97"><rdf:RDF><cc:Work
       rdf:about=""><dc:format>image/svg+xml</dc:format><dc:type
         rdf:resource="http://purl.org/dc/dcmitype/StillImage" /></cc:Work></rdf:RDF></metadata><defs
   id="defs95" /><sodipodi:namedview
   pagecolor="#ffffff"
   bordercolor="#666666"
   borderopacity="1"
   objecttolerance="10"
   gridtolerance="10"
   guidetolerance="10"
   inkscape:pageopacity="0"
   inkscape:pageshadow="2"
   inkscape:window-width="1920"
   inkscape:window-height="1012"
   id="namedview93"
   showgrid="false"
   inkscape:zoom="0.92187324"
   inkscape:cx="-16.893891"
   inkscape:cy="395.85493"
   inkscape:window-x="0"
   inkscape:window-y="0"
   inkscape:window-maximized="1"
   inkscape:current-layer="Capa_1" />
<g
   id="g6"
   style="fill:#505050;fill-opacity:1">
	<g
   id="g4"
   style="fill:#505050;fill-opacity:1">
		<path
   d="M395.44,370.605c-4.14,0-7.496,3.356-7.496,7.496v61.249c0,1.461-1.188,2.649-2.649,2.649H126.707    c-1.461,0-2.649-1.188-2.649-2.649v-61.4c0-4.14-3.356-7.496-7.496-7.496c-4.14,0-7.496,3.356-7.496,7.496v61.401    c0,9.727,7.914,17.641,17.641,17.641h258.589c9.727,0,17.641-7.914,17.641-17.641v-61.249    C402.936,373.961,399.581,370.605,395.44,370.605z"
   id="path2"
   style="fill:#505050;fill-opacity:1" />
	</g>
</g>
<g
   id="g12"
   style="fill:#505050;fill-opacity:1">
	<g
   id="g10"
   style="fill:#505050;fill-opacity:1">
		<path
   d="M385.295,258.93H126.707c-9.728,0-17.641,7.914-17.641,17.641v61.401c0,4.14,3.356,7.496,7.496,7.496    c4.14,0,7.496-3.356,7.496-7.496v-61.401c0-1.461,1.188-2.649,2.649-2.649h258.589c1.461,0,2.649,1.188,2.649,2.649v61.218    c0,4.14,3.356,7.496,7.496,7.496s7.496-3.356,7.496-7.496v-61.218C402.936,266.844,395.023,258.93,385.295,258.93z"
   id="path8"
   style="fill:#505050;fill-opacity:1" />
	</g>
</g>
<g
   id="g18"
   style="fill:#505050;fill-opacity:1">
	<g
   id="g16"
   style="fill:#505050;fill-opacity:1">
		<path
   d="M395.44,28.827c-4.14,0-7.496,3.356-7.496,7.496v65.955c0,4.14,3.356,7.496,7.496,7.496s7.496-3.356,7.496-7.496V36.323    C402.936,32.183,399.581,28.827,395.44,28.827z"
   id="path14"
   style="fill:#505050;fill-opacity:1" />
	</g>
</g>
<g
   id="g24"
   style="fill:#505050;fill-opacity:1">
	<g
   id="g22"
   style="fill:#505050;fill-opacity:1">
		<path
   d="M349.784,28.827c-4.14,0-7.496,3.356-7.496,7.496v65.955c0,4.14,3.356,7.496,7.496,7.496s7.496-3.356,7.496-7.496V36.323    C357.28,32.183,353.924,28.827,349.784,28.827z"
   id="path20"
   style="fill:#505050;fill-opacity:1" />
	</g>
</g>
<g
   id="g30"
   style="fill:#505050;fill-opacity:1">
	<g
   id="g28"
   style="fill:#505050;fill-opacity:1">
		<path
   d="M304.129,28.827c-4.14,0-7.496,3.356-7.496,7.496v65.955c0,4.14,3.356,7.496,7.496,7.496c4.14,0,7.496-3.356,7.496-7.496    V36.323C311.625,32.183,308.269,28.827,304.129,28.827z"
   id="path26"
   style="fill:#505050;fill-opacity:1" />
	</g>
</g>
<g
   id="g36"
   style="fill:#505050;fill-opacity:1">
	<g
   id="g34"
   style="fill:#505050;fill-opacity:1">
		<path
   d="M258.473,28.827c-4.14,0-7.496,3.356-7.496,7.496v65.955c0,4.14,3.356,7.496,7.496,7.496c4.14,0,7.496-3.356,7.496-7.496    V36.323C265.969,32.183,262.613,28.827,258.473,28.827z"
   id="path32"
   style="fill:#505050;fill-opacity:1" />
	</g>
</g>
<g
   id="g42"
   style="fill:#505050;fill-opacity:1">
	<g
   id="g40"
   style="fill:#505050;fill-opacity:1">
		<path
   d="M212.816,28.827c-4.14,0-7.496,3.356-7.496,7.496v65.955c0,4.14,3.357,7.496,7.496,7.496c4.14,0,7.496-3.356,7.496-7.496    V36.323C220.313,32.183,216.957,28.827,212.816,28.827z"
   id="path38"
   style="fill:#505050;fill-opacity:1" />
	</g>
</g>
<g
   id="g48"
   style="fill:#505050;fill-opacity:1">
	<g
   id="g46"
   style="fill:#505050;fill-opacity:1">
		<path
   d="M167.161,28.827c-4.14,0-7.496,3.356-7.496,7.496v65.955c0,4.14,3.356,7.496,7.496,7.496c4.14,0,7.496-3.356,7.496-7.496    V36.323C174.657,32.183,171.301,28.827,167.161,28.827z"
   id="path44"
   style="fill:#505050;fill-opacity:1" />
	</g>
</g>
<g
   id="g54"
   style="fill:#505050;fill-opacity:1">
	<g
   id="g52"
   style="fill:#505050;fill-opacity:1">
		<path
   d="M116.561,69.681c-4.14,0-7.496,3.356-7.496,7.496v25.101c0,4.14,3.356,7.496,7.496,7.496s7.496-3.356,7.496-7.496V77.177    C124.057,73.037,120.701,69.681,116.561,69.681z"
   id="path50"
   style="fill:#505050;fill-opacity:1" />
	</g>
</g>
<g
   id="g60"
   style="fill:#505050;fill-opacity:1">
	<g
   id="g58"
   style="fill:#505050;fill-opacity:1">
		<path
   d="M444.914,180.651V82.097c6.074-0.949,10.735-6.215,10.735-12.551l-0.001-45.897C455.646,10.61,445.037,0,431.997,0    H143.996c-6.728,0-13.055,2.621-17.812,7.378L63.73,69.832c-4.757,4.758-7.377,11.084-7.377,17.812v69.802    c0,8.364,6.804,15.168,15.167,15.168c0.096,0,0.175,0.078,0.175,0.175v31.052c0,0.097-0.079,0.175-0.175,0.175    c-8.363,0-15.167,6.804-15.167,15.168v269.167c0,13.041,10.607,23.65,23.645,23.65L174.152,512    c6.975,0,13.246-3.878,16.366-10.121c0.06-0.12,0.117-0.241,0.17-0.364c0.387-0.89,1.264-1.466,2.237-1.466l126.151,0.001    c0.954,0,1.824,0.56,2.219,1.429c2.908,6.39,9.174,10.52,15.963,10.52h94.754c13.033,0,23.636-10.606,23.636-23.642l0.001-295.026    C455.648,186.973,450.999,181.677,444.914,180.651z M440.656,195.312l-0.001,293.046c0,4.77-3.878,8.65-8.644,8.65h-94.754    c-1.125,0-1.935-0.897-2.316-1.734c-2.821-6.205-9.049-10.214-15.866-10.214l-126.149-0.001c-0.002,0-0.003,0-0.004,0    c-6.848,0-13.046,4.004-15.87,10.226c-0.581,1.067-1.682,1.725-2.901,1.725l-94.154-0.001c-4.771,0-8.653-3.884-8.653-8.658    V219.182c0-0.097,0.079-0.176,0.175-0.176c8.363,0,15.167-6.804,15.167-15.167v-31.052c0-8.363-6.804-15.167-15.167-15.167    c-0.097,0-0.175-0.079-0.175-0.176V87.643c0-2.724,1.061-5.285,2.987-7.211l62.453-62.453c1.926-1.927,4.487-2.988,7.211-2.988    h288.001c4.774,0,8.658,3.885,8.659,8.658l0.001,43.787c-6.086,1.026-10.735,6.32-10.735,12.676v102.659    C429.922,189.102,434.583,194.366,440.656,195.312z"
   id="path56"
   style="fill:#505050;fill-opacity:1" />
	</g>
</g>
<g
   id="g62"
   style="fill:#505050;fill-opacity:1">
</g>
<g
   id="g64"
   style="fill:#505050;fill-opacity:1">
</g>
<g
   id="g66"
   style="fill:#505050;fill-opacity:1">
</g>
<g
   id="g68"
   style="fill:#505050;fill-opacity:1">
</g>
<g
   id="g70"
   style="fill:#505050;fill-opacity:1">
</g>
<g
   id="g72"
   style="fill:#505050;fill-opacity:1">
</g>
<g
   id="g74"
   style="fill:#505050;fill-opacity:1">
</g>
<g
   id="g76"
   style="fill:#505050;fill-opacity:1">
</g>
<g
   id="g78"
   style="fill:#505050;fill-opacity:1">
</g>
<g
   id="g80"
   style="fill:#505050;fill-opacity:1">
</g>
<g
   id="g82"
   style="fill:#505050;fill-opacity:1">
</g>
<g
   id="g84"
   style="fill:#505050;fill-opacity:1">
</g>
<g
   id="g86"
   style="fill:#505050;fill-opacity:1">
</g>
<g
   id="g88"
   style="fill:#505050;fill-opacity:1">
</g>
<g
   id="g90"
   style="fill:#505050;fill-opacity:1">
</g>
</svg>